<svg id="レイヤー_1" data-name="レイヤー 1" xmlns="http://www.w3.org/2000/svg" width="512.03947" height="511.99496" viewBox="0 0 512.03947 511.99496"><path d="M440,6.5,24,246.4c-34.4,19.9-31.1,70.8,5.7,85.9L144,379.6V464c0,46.4,59.2,65.5,86.6,28.6l43.8-59.1,111.9,46.2a48.103,48.103,0,0,0,65.8-37.1L511.5,55.4c6.1-40.1-36.9-68.8-71.5-48.9ZM192,464V399.4l36.6,15.1Zm212.6-28.7L250.8,371.8,391,169.5c10.7-15.5-9.5-33.5-23.7-21.2L155.8,332.6,48,288,464,48Z" transform="translate(-0.04348 -0.02475)" fill="#0e173a"/></svg>